<svg width="607" height="498" viewBox="0 0 607 498" fill="none" xmlns="http://www.w3.org/2000/svg">
<path d="M208.136 461.362H251.719V458.999L35.9608 229.063L35.9608 280.501L208.136 461.362Z" fill="white"/>
<path d="M0.00105145 497.322H242.369L208.136 461.362H35.9607L35.9607 405.625L0.001107 370.025L0.00105145 497.322Z" fill="white"/>
<path d="M258.731 181.237C228.525 165.774 189.329 153.188 143.84 153.188C98.3508 153.188 59.1548 165.774 28.9487 181.237C20.1756 185.755 12.8262 192.617 7.7163 201.059C2.60641 209.501 -0.0641045 219.195 0.00116851 229.063L0.00116255 242.728L35.9608 280.501L35.9608 229.063C35.9608 222.231 39.5568 216.117 45.3103 213.241C66.7063 202.273 101.228 189.148 143.84 189.148C186.452 189.148 220.973 202.273 242.369 213.241C248.123 216.117 251.719 222.231 251.719 229.063L251.719 279.406H287.678L287.678 229.063C287.678 208.926 276.711 190.406 258.731 181.237Z" fill="white"/>
<path d="M242.369 497.322H287.678L251.719 458.999V461.362H208.136L242.369 497.322Z" fill="white"/>
<path d="M527.458 35.9597H571.04V38.3228L355.282 268.259L355.282 216.821L527.458 35.9597Z" fill="white"/>
<path d="M319.322 6.10352e-05H561.69L527.458 35.9597H355.282L355.282 91.6972L319.322 127.297L319.322 6.10352e-05Z" fill="white"/>
<path d="M578.052 316.085C547.846 331.548 508.65 344.134 463.161 344.134C417.672 344.134 378.476 331.548 348.27 316.085C339.497 311.567 332.147 304.705 327.038 296.263C321.928 287.821 319.257 278.127 319.322 268.259L319.322 254.594L355.282 216.821L355.282 268.259C355.282 275.091 358.878 281.205 364.632 284.081C386.028 295.049 420.549 308.174 463.161 308.174C505.773 308.174 540.294 295.049 561.69 284.081C567.444 281.205 571.04 275.091 571.04 268.259L571.04 217.916H607L607 268.259C607 288.396 596.032 306.916 578.052 316.085Z" fill="white"/>
<path d="M561.69 6.10352e-05H607L571.04 38.3228V35.9597H527.458L561.69 6.10352e-05Z" fill="white"/>
<circle cx="144.56" cy="64.7274" r="64.7274" fill="white"/>
<circle cx="64.7274" cy="64.7274" r="64.7274" transform="matrix(1 0 0 -1 399.151 497.322)" fill="white"/>
</svg>
